<?xml version="1.0" encoding="UTF-8"?>
<svg id="Calque_2" data-name="Calque 2" xmlns="http://www.w3.org/2000/svg" viewBox="0 0 354.221469327258092 472.324235482677977">
  <defs>
    <style>
      .cls-1 {
        fill: #f9bc8d;
      }

      .cls-1, .cls-2, .cls-3, .cls-4, .cls-5, .cls-6, .cls-7, .cls-8, .cls-9, .cls-10, .cls-11, .cls-12, .cls-13, .cls-14 {
        stroke-width: 0px;
      }

      .cls-2 {
        fill: #f7c295;
      }

      .cls-3 {
        fill: #d2976f;
      }

      .cls-4 {
        fill: #e0a47a;
      }

      .cls-5 {
        fill: #d59a71;
      }

      .cls-6 {
        fill: #d99d73;
      }

      .cls-7 {
        fill: #ce966e;
      }

      .cls-8 {
        fill: #c28c67;
      }

      .cls-9 {
        fill: #f2b081;
      }

      .cls-10 {
        fill: #eead7e;
      }

      .cls-11 {
        fill: #e9a97b;
      }

      .cls-12 {
        fill: #e3a478;
      }

      .cls-13 {
        fill: #f6b98b;
      }

      .cls-14 {
        fill: #f6b583;
      }
    </style>
  </defs>
  <g id="Calque_1-2" data-name="Calque 1">
    <g>
      <path class="cls-14" d="M106.873406816246643,106.521716928184105c-.417605948781784-3.837262603477029-3.923550238208918-4.998163172362183-6.280684740477227-7.105922486535746-6.671322987531312-5.965583289126698-13.846734553524584-11.247445176203655-21.814653194978746-15.394235433899667-.605593004860566-10.698269960920697-.1021482176875-21.383040662758503,2.767730279247189-31.689769613679346,1.371919234616144-4.926957259118353-.920263879936101-5.851156533803078-4.464621049542984-6.554582211513662-6.442061756657495-1.278528041390928-12.902650395933961-2.465248621698265-19.360735402422506-3.661915084690008-4.624495886051591-.856917253218853-7.294369889532391-4.788237194294197-5.358203357214734-8.996195969713881,2.50241673624987-5.438616676339734,4.802325346256112-11.00915245149281,8.454338725681737-15.904169499386626,3.262948844409038-4.373594773659534,5.683461022357733-9.244460245344271,6.201641476789518-14.833184754339527C68.511314614808725.649891894726352,70.409139799308832-.000760591307881,72.682796031242106.000000667133463c60.536839323474851.0202673027934,117.768883368822571,12.618160401140813,169.939583373065034,44.481375852267774.959320551406563.585900878140819,1.728293478676278,1.482378460063956,2.585895006584906,2.23414969858004-2.73976112440323,2.618775909532815-5.112132020487479.051934649531177-7.410180788996513-.763770579923403-4.024840067513651-1.428640338089281-7.871636077723451-3.366654504557118-11.767002563994538-5.148052267024468-20.408255360274779-9.332967664337957-42.191362782145006-12.803301746227589-64.264319348319987-15.011615809241448-1.931659993302674-.19325725008548-3.933779366450835-.211981668810949-5.846912477132719.069681443343143-2.49025623414127.366624966820382-4.669704340938551,1.515843141187361-3.883635178355689,4.58892224097599.941222862977156,3.679456532629956.659671473049457,7.397277031054728.433986860442019,11.045572327561786-.32418467966454,5.238355346392382,1.803903188825643,7.65580302025046,6.885705486416555,8.926728800324781,9.195557095203185,2.299708600333361,17.892676668807326,5.5248574786674,26.22920158879424,10.653982213114432,11.713997081285925,7.207140145421363,22.911888146736601,15.448165509623323,35.761175398134583,20.816629786325393,2.612648111216913,1.091574016777486,6.580476883564188.622305130066707,7.39322761841504,4.716259002010702-1.936524194145022.001901681338495-3.877554927305027-.081879434563234-5.808785726414499.020016758508973-10.186995678643143.537425860153235-14.015980129886884,3.191074855652914-15.28696719702566,10.512333737588051-16.611102811601086-.082263342063015-30.190234786434303,8.683907306321089-44.535478393925587,15.21430780935043-11.439384330791654,2.509058717151675-21.30820404845872,8.155230965944611-30.471643111632147,15.210165179579235-6.788564534301258-.89990596518237-9.375532526366442-7.051657607758898-13.558172991790343-11.111077660827505-1.610765802444803-1.563324910119263-2.703637279915711-3.202975988166145-5.166925812331101-2.925080526364582-1.609120558039649-2.008130853780131-3.218241116079298-4.016261707560261-4.827361674118947-6.024383633258367-.503230190079194-.885433545225169-1.197666392676183-1.355505959260881-2.255916205331232-1.035362816253837l.045136922521124.050934704413521Z"/>
      <path class="cls-11" d="M83.20592229455724,290.419302153637545c-4.044153806151371-.577254031297343-4.973931490674659-1.692657097344636-2.062206560023697-5.484984667113167,5.932179056602763-7.726290222939497,10.062529362972782-16.474452931130145,11.650261743779993-26.190741074515245,2.303056034081237-14.093280052020418-8.263418842621832-32.009796691630982-24.570222972120973-33.022562533848941-.073535271558285-2.9208039753712,1.253819299459792-5.442665561256035,2.300480868929299-8.044558468852301,4.929152229982719-2.548181569865847,10.654245088961034-1.888485634875906,15.712155576531586-3.841092750400094,11.403260486304134-4.402204810519834,23.280923619458918-7.659097482288416,33.741816724939781-14.342194961581299,3.421893760169041-2.186147868907028,7.22169300636051-3.958889856453425,11.449541926673191-4.02899315164268,11.274931422905865-.186936168450302,22.525756438697499-.082906163924235,33.813277557901529-1.038478716664031,16.238562252974589-1.374710262363806,31.872461421839034,3.994209346490607,47.661156629270408,6.547087087174987,17.070483661733306,2.760116366249349,34.272086149112511,6.312207121581196,50.652497082532136,12.464655154507454,1.782228882133495.669391831394933,2.960223874346411-.190364551709536,4.395878446464849-.677694947101372,9.17402585324453-3.11400765696817,16.703093433414324-9.152104823263471,24.059624948415149-14.945536846745199,4.940168214241567-3.890500752893786,11.794113330452092-6.788913100102036,13.409099542452168-13.996999622152543,2.777172551470358-12.395319674317761,6.913889238354386-24.475638780518238,8.775018319443916-37.074822265631155,1.726147507715723-11.685340784857544,1.003599085543101-8.928893860064818,13.274189501442379-13.436726801683108,11.638315838770723,19.735077540924067,18.493834667016927,41.206952613660178,23.082850499868073,63.494515059688638.464173518610551,2.254286986187253.680272794263146,4.559499748706912,1.011968372285992,6.841088807829692-5.000326933481119-.632929546938612-9.961168001302212-1.463866083270659-15.061211052052386-1.252199129328801-3.23698259579578.13434976897679-6.087189692265383.076960061708633-7.872852127933584,3.581392718500865-.699658065266703,1.373174632361952-2.653779221282093,2.158167261784911-4.115900768574647,3.0864913100786-6.71052272372981,4.260623295605001-14.204968639081926,7.487142634434349-19.844151127303121,13.164384606516251-4.249952421199851,4.278658020042712-9.147773475166105,6.290833294698132-14.830519173870925,7.205336672977865-1.319128349005041.212274063476798-2.697127834671846.585753564795596-3.847082139673148,1.238128473034521-11.496181028865976,6.521481349706846-23.763480955960404,5.564587440918331-36.168695283406123,4.012797611974747-9.291481997108349-1.162275493421475-18.856074565035669-1.936358007367744-27.900769901763852.110243949185133-23.247088810661808,5.260247001994685-45.84237470845801,13.125083192172497-69.264431684709052,17.820432627532682-16.305087352728151,3.268659883058717-32.527769420601544,6.930066067108783-48.912329231212425,9.832531763273437-2.754997518220989.488026785742477-7.279777287005345-.610591487262354-8.204547705958248,3.060403456214772-2.33474487192143,9.268259162337927-8.224076041693479,16.623784020704989-12.334898012328267,24.918096638770294Z"/>
      <path class="cls-7" d="M294.511957212813286,383.885297207947588c-30.214913452473411,34.268154882936869-67.981641777290861,56.879556697675071-110.980461899252987,71.209448763078399-24.609208111225598,8.20129986599386-49.906486044534176,13.099423886216755-75.796195027483918,15.500220688256377-25.505294051681631,2.365120188742367-50.91866901391586,2.339871574531571-76.33862495376161-.296340877983312-6.200783088406752-.64307184741665-11.902770993387094-3.381457263527409-17.184863913891604-6.775163854739731,1.301674451862709-1.728226573661232,3.130757033282862-1.440778064757978,4.806188093984019-1.027229334093136,12.843850791630757,3.170076008187607,25.81939266783229,2.122740634769798,38.69006809646271.730674182155781,7.039643136602535-.76135106986294,14.311623395786228-1.135973365600876,20.919997901828538-4.40704383064076,5.417646752803194-2.681709955353654,5.490109038879382-3.003442296852882.875913813435545-7.024364462904487-1.155533829498381-1.006980445468798-2.036669505601822-2.324550986842951-3.066592501587365-3.479237611069038-9.728187087432161-10.906901367185128-22.783416018608477-15.406332984202891-36.396239737508949-18.829716518004716-6.440273447524305-7.437127522405717-12.288902701424377-15.434188598184846-20.516126167191032-21.162374202760475-2.192109335457644-1.526237659965773-1.674358075219061-3.519806812973911-.64815476223157-5.688294936862803,2.819877373573036-5.959137214351358,7.666409721599848-9.788569890437429,13.410744786851865-12.379713388023447,3.572183259720987-1.611304419586304,3.354009545471854-2.570537485702516.339063411653115-4.334262111029602-.788930457196329-.461474671645192-1.317125442774341-1.367210673983209-1.964922543178545-2.068957872390456,3.137194946162708-1.631089047979913,6.321672785808914-1.396423356338346,9.644851881825161-.523149857986937,7.497092612869892,1.97003473042605,14.863280997191396,4.653101754152885,22.662454788840478,5.178394351678435,13.762827088992708.926984836081829,27.302616262895754,3.701189714789507,40.557492025700412,6.9254413209419,11.889394441068362,2.892055553247701,23.657112328715812,2.934803207013829,35.357160598763585,1.980748428110019,5.99527060282162-.488866025392781,10.760613716201988.807669956191603,15.42645530941445,3.301783065071504,5.12021517777066,2.736992635411298,9.661018196389705,6.508357070042621,14.934741830153143,9.108892909263886,2.238462308190719,1.103832272547152,3.95144786068704,2.92591083793377,4.505680627242327,5.751434328554751.591286531796868,3.014513117794195,1.554469830931339,6.007634552543095,2.76107776927347,8.837657796191706,1.586945524788462,3.722402836207038,3.755878373880478,6.674919356726605,8.728164620155439,6.124913829873549,13.238494851144424-1.464383911990808,25.985419287757395-3.837075113766332,38.920616909914315-8.034487593027734,19.695864533981876-6.39118492968737,36.409830886923373-17.049849921497298,53.370655432609055-28.00378442152396,5.588823703032176-3.609480462599095,9.591488737291002-9.884707471002912,16.980853607979952-10.615488790135714Z"/>
      <path class="cls-10" d="M327.468491631188954,133.305657587388851c-12.270590415899278,4.50783294161829-11.548041993726656,1.751386016825563-13.274189501442379,13.436726801683108-1.86112908108953,12.599183485112917-5.997845767973558,24.679502591313394-8.775018319443916,37.074822265631155-1.614986212000076,7.208086522050507-8.468931328210601,10.106498869258758-13.409099542452168,13.996999622152543-7.356531515000825,5.793432023481728-14.885599095170619,11.831529189777029-24.059624948415149,14.945536846745199-1.435654572118437.487330395391837-2.613649564331354,1.347086778496305-4.395878446464849.677694947101372-16.380410933419626-6.152448032926259-33.58201342079883-9.704538788258105-50.652497082532136-12.464655154507454-15.788695207431374-2.55287774068438-31.42259437629582-7.921797349538792-47.661156629270408-6.547087087174987-11.28752111920403.955572552739795-22.538346134995663.851542548213729-33.813277557901529,1.038478716664031-4.227848920312681.070103295189256-8.02764816650415,1.842845282735652-11.449541926673191,4.02899315164268-10.460893105480864,6.683097479292883-22.338556238635647,9.939990151061465-33.741816724939781,14.342194961581299-5.057910487570553,1.952607115524188-10.783003346548867,1.292911180534247-15.712155576531586,3.841074894236954,1.697176899757324-6.397684572949402,3.044632065430051-12.893863739955123,2.237532387440297-19.511071978481596-.513387785953455-4.210090354854401-.182479063949359-9.210476619487054-5.738111749467862-10.92684670104336-1.607689910733825-1.883521621614818-3.215308289101813-3.767061099393686-4.822497473278418-5.651279111357326,3.051141510675734-4.487825111191341,2.783753529081878-9.600901619312936,2.379738729712699-14.579717639270712-.43577516957339-5.370437382692216-2.981397454481339-10.474264398478226-2.240894408612803-16.03522703834733,2.593262840215175-2.506094594124079,4.777861277314514-5.573086974413854,8.911430540125366-5.791699975688061,8.383664748736919-.443404234882109,16.714037885305515-2.330327455511906,24.374295823488865-5.11029094672449,13.196505352696477-4.78907643394632,23.124625401220328-2.523406143967804,31.091471057194212,9.039289586634368,7.208745648234981,10.46239005021107,17.178139871552048,15.776544807727078,29.93393432146695,17.731633929882264,10.852461273281733,1.663319421851156,21.221149159855486,6.246889278024355,32.006942268655621,8.617527021077876,21.363784696317452,4.69563513396497,42.907044097244579,8.572493778472563,64.29751036583184,13.153760189644345,11.033581222291104,2.363102442347554,20.145731579525091-1.873647163582064,29.010880679281399-7.233406560913863,3.620396073951269-2.188915574141902,6.840497031529594-4.998636360676755,8.338957020408998-9.375253289891589,2.587754848083932-7.558085169274818,4.934874819206016-15.055405816509847,4.123912393490173-23.257152086573115-.762535014389869-7.711799946819156.777199149282751-15.50284554418613-.934141158810235-23.243849245280217-2.504133513015404-11.327601491054338-9.822252147838299-19.674000536036147-17.050812261270039-28.010310849029338-6.655156672964949-7.674926970618799-14.708914152814032-13.811759789168718-23.310180356878845-19.23751556424304-2.068572940537706-1.304856953453964-4.596169069380267-2.673612185521051-4.19437177333748-5.749818345821041.296716251377802-2.270995890536142,10.031985042978704-7.520145287345258,12.339833745536453-6.881251782028812,3.314738276907519.917637134852157,6.665743463034232,2.492751576465707,9.826973283948973-.403370717862344,9.001489788070103,6.25073728110965,16.315888739896764,14.27776546212408,23.761334984999849,22.206589211727987,12.035177401605324,12.816546554990055,22.275178562955261,26.910165874102859,30.970939021617596,42.150338335283777.668398421617894,1.171480345349664,1.092084621452159,2.482167335960185,1.629578814523484,3.728143592549714Z"/>
      <path class="cls-4" d="M30.661608746209822,383.853013265588743c.647940165135878.701675773754687,1.17613515071389,1.607411776092704,1.965065607910219,2.068886447737896,3.014946133818739,1.763724625327086,3.233119848067872,2.722957691443298-.339063411653115,4.334262111029602-5.744335065252017,2.591143497586017-10.590867413278829,6.420576173672089-13.410744786851865,12.379713388023447-1.026203312987491,2.168488123888892-1.543954573226074,4.162057276897031.64815476223157,5.688294936862803,8.227223465766656,5.728185604575629,14.075852719666727,13.725246680354758,20.516269231920887,21.162374202760475,3.080898974652882,7.159249916765475,2.90464322648404,7.301563534356319-4.014110212712694,11.496904698731669-5.631242395669688,3.414598301698788-11.378367223171153,6.612172800614644-17.638951368990092,8.586493010114282-5.500981958410193,1.734761929250453-10.401878904087425,4.681564477672509-15.687047716302914,6.815697344316504-1.145662363083829-.205631570914193-2.660360198891794-.276984797499608-2.70034679111086-1.694228439675499-.041488771888908-1.470062171763857,1.47363825811226-1.34617611419344,2.582747582511729-1.621268158434759,11.591676736577938-2.875056486251196,22.057648639996842-8.250761436973335,32.336134213892365-14.182792996181888,4.023409420206008-2.321979699398071,3.755091517861729-4.676350478130189,1.520134295573371-7.718112100372309-5.392753489668394-7.339454311837471-10.73972626552677-14.701085977885668-18.350483806902048-20.060398971147151-5.553415182195749-3.91060679221664-5.871877272631536-6.896621474168569-1.294735812425643-12.393962605945489,3.737852217816908-4.489289316541544,8.103544006113225-8.328150046589144,14.042804766884728-10.570312698229827-2.921310267605804-2.945909740281422-6.260512613454921-4.091918269383314-9.405289990345409-5.434844561945283-5.104549589763337-2.179630369480947-6.169594977123779-4.953085289351293-3.167453136697077-9.709181390588128,3.094347059331994-4.90230236231946,8.051683041254364-7.431092139375323,13.33463435014346-8.731592189104049,4.393875540237786-1.081690630662706,4.704469070487903-3.379421660965818,3.899801492922052-6.909585048366353-1.195663486449121-5.245569236165466-2.112064618659133-10.562991671478812-3.52075148905169-15.748707049908262-.883925438351071-3.253999973392638-.014449537795372-4.598247622003328,3.185980019317867-5.647975721236435,22.048850159060748-7.232495896610999,44.044837900144557-14.626411505018041,66.032384822119639-22.043682974377589,7.632002653877862-2.574537266174957,15.191686086407572-5.362455677917751,24.454340540291014-8.64466838854969-13.11560224751338-3.375314743518175-24.815650517561153-5.556016482769337-35.280620967865616-11.335984959492635.026967701729518-.457171336407555.053720806361525-.913503433162987.080402378627696-1.369853386080649,10.692371839682892-1.681675557216295,21.317860917779399-4.710937865493179,31.95944477807825-5.492787810260779,25.401429057226778-1.866254712178488,50.132528318967161-8.788464067651148,75.779599518727991-8.799624169407252,14.088943142522112-.006142520005596,28.232250882692824-1.666658524294689,42.247515688926796-3.410777082857749,10.659824613456294-1.326570047431233,21.359063560210416-2.606767640043472,30.679230035813816-9.504264066190444,6.121024501066131-4.529929943093521,13.195217770122326-8.438643982051872,21.22687174908242-8.986863892625479,8.119424191219878-.554219581274083,15.494625653571347-3.467863235357072,22.886136495219034-6.424004556929503,1.981804181396001-.792581498615618,3.790500038699975-1.924197960493984,6.065801515032945-1.865611890316359,10.895595289575795.280716735524038,21.703563431625298-1.98535531811649,32.621762948643664-1.154400925621303.122678006537171,8.737306161201559-2.4488389946182,17.122131668547809-3.375326190338455,25.722177506235312-4.212183332305358.580093161186596-8.698478688544128.42678014730518-12.586405808820928,1.875022088117476-12.652144052553922,4.71293775572849-25.089977138588438,10.000540399147212-37.597125086625965,15.099081990743798-1.434653119005816.584842900492731-3.295353005902143,1.21941521440931-3.379403535162055,2.923500255954423-.44843639823921,9.094268711922268-9.412014032684965,10.077071912948668-14.496463027791833,14.14902699231061-5.371722974263321,4.301978168670757-12.519737644335692,6.803947989186781-18.473948669459787,10.831298373850586-5.053547013283605,3.418133821935044-10.045433127659635,4.514680780055642-16.380768595245172,2.799239218964431-13.85167028673095-3.750579861120059-27.94576375955512-6.784591908701259-42.512400037734551-5.518232842265206-3.597505717045351.312732835442148-6.866677877240363-1.153043857248122-10.301089801339913-1.707084876894442-4.907835585114299-.791670834316392-9.556366345916103-2.208450216257916-14.883453124215521-1.154079514693876-11.561633143137442,2.288338688666045-23.375417874054619,3.275070245508687-34.996852074607887,5.304316011810442-7.663405362256526,1.338105128605093-15.327025321608744-.58928908503367-22.996797064381099.905128892803987-3.898156248516898.759529741257211-8.066847902700829.2098813376615-12.15113136580112-.751208769386722-2.92395696512358-.688105090021054-6.40815541549091-.693747637467823-9.247060398240137.220416473717705-20.739235614646532,6.677919192077752-41.374248573009027,13.677892136585797-62.055900633567944,20.534837216990127-1.868997641273381.619644561809764-3.361448911464322,1.499060580168589-2.831036422561738,3.66679874521833.952524976699351,3.89335773894345,2.137744737809044,7.729968592479054,3.225680482073585,11.590328142550788,2.374588399408822,7.65990100961244-.221035008860781,12.451780861119914-8.186807679356207,14.144866506372637-1.501035154031342.884772867204447-3.234335898279824,1.528916084385855-4.455107244957617,2.703994446541401-2.606210198338886,2.508648025406728-6.554009908393709,4.793379769183957-5.659068485783791,8.915832076971128.760102913969604,3.501307828300924,5.212849590870974,2.631962685765757,7.83937498096202,4.081811681233376.656094854784897.362122981770881,1.492165140729412.399299512740981,2.245472479993623.585789277121876Z"/>
      <path class="cls-5" d="M30.690937015995587,367.565585783720962c7.965772670495426-1.693085645252722,10.561396078765029-6.484965496760196,8.186807679356207-14.144866506372637,2.51464877071885.09917312824291,5.08008552082174.58153951037275,7.500096972213214.592110358755235,14.632875248473283.063960775183659,29.405596271159084,4.207626204386543,43.5437536810241-4.696706503733367,11.051392781260802-6.960260838419345,23.715125076998447-10.321862048902403,37.323013062694372-8.847621535040162,17.240158432290627,1.86771891753051,34.588116139129852,1.180649484953392,51.89737483632598,1.264502025505863.969120485455278.004678314655393,1.942175251004301.114886551515156,2.905644679598481.2367370065258,10.938729305869856,1.383174083535778,21.825740711605249,3.119471642787175,32.90309974147749,3.317532200668211,10.285138083871061.183918476936014,20.609690501038131-1.005801938721561,30.867288624258435,1.006516185236251,2.789976844866032.547327102431154,5.720085593406111.056068351221256,8.625801805370429-.802848792234727,12.402209968102397-3.66604878637736,24.808926475219778-7.373845281408649,37.371655071117857-10.417463944580959,6.360014133624645-1.540915425792264,11.427867619975586-5.89849768545173,17.727866099090534-7.128073056501307,5.211919670120551-1.017265595246499,9.293556435703067-3.810076595600549,13.220039500891289-7.004294135906093,4.892169997105157-3.979745854614521,10.402236565911153-6.688347191160574,16.435776984182667-8.410466957142489-4.998824753811277,15.654712208879573-12.565804487605419,30.007995847565326-22.055359604304613,43.387904339189845-1.340444993869824.144920617360185-2.775741904166352.025962860723666-4.002307372435098.475223917008407-13.996237197057781,5.127075739763313-27.107118308456847,12.321109461681772-38.095204946401282,22.08989472372923-9.566452409426347,8.504890346075626-19.556662551052796,16.614516672205355-28.611873145484424,25.713624404248549-1.394809591520243,1.401601643556205-2.964444283899866,2.679067243259851-5.022859628561491,2.657425573934233-2.024079809303657-.021284546068273-13.615613481149921-10.454354776946275-13.770981778641726-12.499349678846556-.493215658932968-6.492929345373341-4.917134792605793-11.064606997117153-9.91345591362915-12.722765987915409-15.733257624304315-5.221463416373808-30.199820123389145-16.162827177780855-48.312673412674485-11.843885654441692-9.238834176227101,2.20295051811263-18.750921988004848,1.389280891216913-28.119015148378821,2.061993968894967-8.714215808915469.625787081815361-17.297598921648387,2.986157531253411-26.018181111077865,2.51000509377991-20.733012298862377-1.132152146761655-41.408369511271303-3.240857837565272-62.199966817337554-3.432347327532625-6.200353894215368-.057139720989653-12.324454286990658-1.708763356200507-18.587255936137808-1.151793925851962-1.708622078209373.151955945508234-2.999209013447398-.674034433724955-3.799083922536738-2.210985791376515Z"/>
      <path class="cls-12" d="M353.917226049172314,246.930153371320557c-10.918199517018365-.830954392495187-21.726167659067869,1.435117661145341-32.621762948643664,1.154400925621303-2.27530147633297-.058586070177626-4.083997333636944,1.07303039170074-6.065801515032945,1.865611890316359-7.391510841647687,2.956141321572431-14.766712303999157,5.869784975655421-22.886136495219034,6.424004556929503-8.031653978960094.548219910573607-15.105847248016289,4.456933949531958-21.22687174908242,8.986863892625479-9.320166475603401,6.897496426146972-20.019405422357522,8.177694018759212-30.679230035813816,9.504264066190444-14.015264806233972,1.744118558563059-28.158572546404685,3.404634562852152-42.247515688926796,3.410777082857749-25.64707119976083.011160101756104-50.378170461501213,6.933369457228764-75.779599518727991,8.799624169407252-10.641583860298852.7818499447676-21.267072938395359,3.811112253044485-31.959516310442268,5.492787810260779-1.115690302010989-.025248614212614-2.231380604023798-.050515084585641-3.34699937366895-.075781554962305,0,.00001785616405-.159231045219713-.086941656718409-.159087980488039-.086316691020329-.727198025919279-.359855249094835-1.454610648934249-.720317607727338-2.181951739583383-1.080779966359842,0,0-.152363938148483-.08253118450375-.152220873416809-.081941931130132-.442570744280602-.310375821951311-.885141488561203-.62134089727806-1.327783765207641-.932305972601171,0,0-.074679789400761.105404929063297-.075752774881039.106672716623507,4.109748985154511-8.293044830506915,9.99908015492656-15.648569688873977,12.33382502684799-24.916828851211903.924770418952903-3.670994943477126,5.449550187737259-2.572376670472295,8.204547705958248-3.060403456214772,16.384559810610881-2.902465696164654,32.607241878484274-6.56387188021472,48.912329231212425-9.832531763273437,23.422056976251042-4.695349435360185,46.017342874047245-12.560185625537997,69.264431684709052-17.820432627532682,9.044695336728182-2.046601956552877,18.609287904655503-1.272519442606608,27.900769901763852-.110243949185133,12.405214327445719,1.551789828943583,24.672514254540147,2.508683737732099,36.168695283406123-4.012797611974747,1.149954305001302-.652374908238926,2.527953790668107-1.025854409557724,3.847082139673148-1.238128473034521,5.682745698704821-.914503378279733,10.580566752671075-2.926678652935152,14.830519173870925-7.205336672977865,5.639182488221195-5.677241972081902,13.133628403573312-8.90376131091125,19.844151127303121-13.164384606516251,1.462121547292554-.928324048293689,3.416242703307944-1.713316677716648,4.115900768574647-3.0864913100786,1.7856624356682-3.504432656792233,4.635869532137804-3.447042949524075,7.872852127933584-3.581392718500865,5.100043050750173-.211666953941858,10.060884118571266.619269582390189,15.061211052052386,1.252199129328801,2.821451085608714,14.319178367720269,2.987334640803965,28.78236668849695,2.353915545829295,43.288891916413377Z"/>
      <path class="cls-6" d="M339.199155753596642,312.530642128900581c-6.033540418271514,1.722119765981915-11.54360698707751,4.430721102527968-16.435776984182667,8.410466957142489-3.926483065188222,3.194217540305544-8.008119830770738,5.987028540659594-13.220039500891289,7.004294135906093-6.299998479114947,1.229575371049577-11.367851965465888,5.587157630709044-17.727866099090534,7.128073056501307-12.562728595898079,3.04361866317231-24.96944510301546,6.751415158203599-37.371655071117857,10.417463944580959-2.905716211964318.858917143455983-5.835824960504397,1.350175894665881-8.625801805370429.802848792234727-10.257598123220305-2.012318123957812-20.582150540387374-.822597708300236-30.867288624258435-1.006516185236251-11.077359029872241-.198060557881035-21.964370435607634-1.934358117132433-32.90309974147749-3.317532200668211-.96346942859418-.121850455010645-1.936524194143203-.232058691870407-2.905644679598481-.2367370065258-17.309258697196128-.083852540552471-34.657216404035353.603216892024648-51.89737483632598-1.264502025505863-13.607887985695925-1.474240513862242-26.27162028143357,1.887360696620817-37.323013062694372,8.847621535040162-14.138157409865016,8.90433270811991-28.910878432550817,4.760667278917026-43.5437536810241,4.696706503733367-2.420011451391474-.010570848382486-4.985448201494364-.492937230512325-7.500096972213214-.592110358755235-1.087935744264541-3.860359550071735-2.273155505374234-7.696970403607338-3.225680482073585-11.590328142550788-.530412488902584-2.167738165049741.962038781288356-3.047154183408566,2.831036422561738-3.66679874521833,20.681652060558918-6.85694508040433,41.316665018921412-13.856918024912375,62.055900633567944-20.534837216990127,2.838904982749227-.914164111185528,6.323103433116557-.908521563738759,9.247060398240137-.220416473717705,4.084283463100292.961090107048221,8.252975117284223,1.510738510643932,12.15113136580112.751208769386722,7.669771742772355-1.494417977837657,15.333391702124572.432976235801107,22.996797064381099-.905128892803987,11.621434200553267-2.029245766301756,23.435218931470445-3.015977323144398,34.996852074607887-5.304316011810442,5.327086778299417-1.054370701564039,9.975617539101222.362408680377484,14.883453124215521,1.154079514693876,3.43441192409955.55404101964632,6.703584084294562,2.019817712336589,10.301089801339913,1.707084876894442,14.566636278179431-1.266359066436053,28.660729751003601,1.767652981145147,42.512400037734551,5.518232842265206,6.335335467585537,1.715441561091211,11.327221581961567.618894602970613,16.380768595245172-2.799239218964431,5.954211025124096-4.027350384663805,13.102225695196466-6.529320205179829,18.473948669459787-10.831298373850586,5.084448995106868-4.071955079361942,14.048026629552623-5.054758280388342,14.496463027791833-14.14902699231061.084050529259912-1.704085041545113,1.944750416156239-2.338657355461692,3.379403535162055-2.923500255954423,12.507147948037527-5.098541591596586,24.944981034072043-10.386144235015308,37.597125086625965-15.099081990743798,3.8879271202768-1.448241940812295,8.37422247651557-1.294928926930879,12.586405808820928-1.875022088117476-1.59638779701163,11.156155543842033-4.872713193737582,21.881102612000177-8.565500021399203,32.477931712001009-.863109520041689,2.476721206303409-.895156019709248,5.299566272502489-2.777244083838013,7.400379539343703Z"/>
      <path class="cls-9" d="M271.106638810048025,65.220586447827372c-3.161229820914741,2.896122294328052-6.512235007041454,1.321007852714501-9.826973283948973.403370717862344-2.307848702557749-.638893505316446-12.043117494158651,4.61025589149267-12.339833745536453,6.881251782028812-.401797296042787,3.076206160299989,2.125798832799774,4.444961392367077,4.19437177333748,5.749818345821041,8.601266204064814,5.425755775074322,16.655023683913896,11.562588593624241,23.310180356878845,19.23751556424304,7.22856011343174,8.336310312993191,14.546678748254635,16.682709357975,17.050812261270039,28.010310849029338,1.711340308092986,7.741003701094087.171606144420366,15.532049298461061.934141158810235,23.243849245280217.810962425715843,8.201746270063268-1.53615754540624,15.699066917298296-4.123912393490173,23.257152086573115-1.498459988879404,4.376616929214833-4.718560946457728,7.186337715749687-8.338957020408998,9.375253289891589-8.865149099756309,5.3597593973318-17.977299456990295,9.596509003261417-29.010880679281399,7.233406560913863-21.390466268587261-4.581266411171782-42.933725669514388-8.458125055679375-64.29751036583184-13.153760189644345-10.785793108800135-2.370637743053521-21.154480995373888-6.95420759922672-32.006942268655621-8.617527021077876-12.755794449914902-1.955089122155186-22.725188673231969-7.269243879671194-29.93393432146695-17.731633929882264-7.966845655973884-11.562695730602172-17.894965704497736-13.828366020580688-31.091471057194212-9.039289586634368-7.660257938183349,2.779963491212584-15.990631074751946,4.66688671184238-24.374295823488865,5.11029094672449-4.133569262810852.218613001274207-6.318167699910191,3.285605381563983-8.911645137221058,5.791682119525831-2.909793556787918-3.791622251336776-.404014799369179-7.518256998128891.433486133884799-11.071374482822648,3.993866553324551-16.943686105513734,25.483548212621827-30.567875832451136,42.380208226610193-26.630368730961891,2.631675720394924.61326098360405,5.799128857092001,3.164790583997274,8.758065148860624.259994658585128,2.46328853241539-.277895461801563,3.556160009886298,1.361755616245318,5.166925812331101,2.925080526364582,4.182640465423901,4.059420053068607,6.769608457489085,10.211171695645135,13.558172991790343,11.111095516990645.387347758249234,5.067659358016499,2.787330147348257,8.956428063116618,6.159294316517844,12.78429832495658,6.211727540301581,7.051612967352412,14.655121814088488,10.782479624730513,21.971022945584991,16.165452033715155,8.256980929741985,6.075398690403745,17.616919400470579,9.06112767374907,27.380872670566532,10.755623955865303,19.237127475134912,3.33858461662021,38.734346630601067,5.363294917568055,57.802657723565062,9.432428723205703,13.977710314435171,2.982800572644919,24.534599854185217-.313089958697674,32.331055415954324-11.829332881751725,2.9768193830987-4.397080091793214,7.172836400839515-9.04321794245152,6.485267305310117-14.631054107347154-.840219163133952-6.829276956132162.803022333166155-13.447458355532035.299506013627251-20.180133470866167-.204224903009163-2.730859043486817-.046424505097093-5.543901076302973-1.33822749054525-7.969812571332113-5.238529710022704-9.837665410082991-10.761185975126864-19.438567029395017-22.035259009648144-23.77198097269229-2.338965281474884-.899004228960621-4.623637497668824-2.14789996816944-6.642566976668604-3.63031860459887-7.854396777680449-5.767147751826997-17.144090465655609-6.685302715401122-26.310748485266231-8.082011770344252-.812750734850852-4.093953871943995-4.780579507198127-3.624684985233216-7.39322761841504-4.716259002010702-12.849287251397982-5.36846427670207-24.047178316848658-13.60948964090403-35.761175398134583-20.816629786325393-8.336524919986914-5.129124734447032-17.033644493591055-8.354273612781071-26.22920158879424-10.653982213114432-5.081802297590912-1.270925780074322-7.209890166081095-3.6883734539324-6.885705486416555-8.926728800324781.225684612607438-3.648295296507058.507236002535137-7.366115794931829-.433986860442019-11.045572327561786-.786069162582862-3.073079099788629,1.393378944214419-4.222297274155608,3.883635178355689-4.58892224097599,1.913133110681883-.281663112154092,3.915252483830045-.262938693428623,5.846912477132719-.069681443343143,22.07295656617498,2.208314063013859,43.856063988045207,5.678648144903491,64.264319348319987,15.011615809241448,3.895366486271087,1.78139776246735,7.742162496480887,3.719411928935187,11.767002563994538,5.148052267024468,2.298048768509034.815705229454579,4.670419664593283,3.382546489456217,7.410180788996513.7637661158833,9.571245077906497,4.858969919222545,18.075799524047397,11.206242080520497,25.89836439915598,18.505064693886197Z"/>
      <path class="cls-3" d="M30.690937015995587,367.565585783720962c.79987490908934,1.53695135765156,2.090461844327365,2.36294173688475,3.799083922536738,2.210985791376515,6.26280164914715-.556969430348545,12.38690204192244,1.094654204862309,18.587255936137808,1.151793925851962,20.791597306066251.191489489967353,41.466954518475177,2.30019518077097,62.199966817337554,3.432347327532625,8.720582189429479.476152437473502,17.303965302162396-1.884218011964549,26.018181111077865-2.51000509377991,9.368093160373974-.672713077678054,18.88018097215172.140956549217663,28.119015148378821-2.061993968894967,18.11285328928534-4.318941523339163,32.57941578837017,6.622422238067884,48.312673412674485,11.843885654441692,4.996321121023357,1.658158990798256,9.420240254696182,6.229836642542068,9.91345591362915,12.722765987915409.155368297491805,2.044994901900282,11.746901969338069,12.478065132778283,13.770981778641726,12.499349678846556,2.058415344661626.021641669325618,3.628050037041248-1.255823930378028,5.022859628561491-2.657425573934233,9.055210594431628-9.099107732043194,19.045420736058077-17.208734058172922,28.611873145484424-25.713624404248549,10.988086637944434-9.768785262047459,24.098967749343501-16.962818983965917,38.095204946401282-22.08989472372923,1.226565468268745-.44926105628474,2.661862378565274-.330303299648222,4.002307372435098-.475223917008407-7.354886270599309,9.47390858941435-13.703455225773723,19.761272531764916-22.632053533576254,27.966715027530881-7.38915027359144.730817031459083-11.391815307850266,7.0060440398629-16.980639010882442,10.615524502461994-16.960824545685682,10.953934500026662-33.67479089862718,21.61259949183659-53.370655432609055,28.00378442152396-12.93519762215692,4.197412479261402-25.682122058769892,6.570103681036926-38.920616909914315,8.034487593027734-4.972286246274962.550005526853056-7.141219095366978-2.40251099366651-8.728164620155439-6.124913829873549-1.206607938342131-2.830023243648611-2.169791237476602-5.823144678397512-2.76107776927347-8.837657796191706-.554232766555288-2.825523490620981-2.267218319051608-4.647602056007599-4.505680627242327-5.751434328554751-5.273723633763439-2.600535839221266-9.814526652382483-6.371900273852589-14.934741830153143-9.108892909263886-4.665841593212463-2.494113108879901-9.43118470659283-3.790649090464285-15.42645530941445-3.301783065071504-11.700048270047773.95405477890381-23.467766157695223.911307125137682-35.357160598763585-1.980748428110019-13.254875762804659-3.224251606152393-26.794664936707704-5.998456484860071-40.557492025700412-6.9254413209419-7.799173791649082-.525292597525549-15.165362175970586-3.208359621252384-22.662454788840478-5.178394351678435-3.323179096016247-.873273498351409-6.507656935662453-1.107939189992976-9.644851881825161.523149857986937-.753450403995885-.186418339728334-1.5895206899404-.223594870698435-2.245615544725297-.585717852469315-2.626525390091047-1.449848995467619-7.079272066992417-.580503852932452-7.83937498096202-4.081811681233376-.894941422609918-4.122452307787171,3.052858287444906-6.4071840515644,5.659068485783791-8.915832076971128,1.220771346677793-1.175078362155546,2.954072090926275-1.819221579336954,4.455107244957617-2.703994446541401Z"/>
      <path class="cls-8" d="M2.701180851761819,456.385639405165421c5.285168812215488-2.134132866643995,10.18606575789272-5.080935415066051,15.687047716302914-6.815697344316504,6.260584145818939-1.974320209499638,12.007708973320405-5.171894708415493,17.638951368990092-8.586493010114282,6.918753439196735-4.19534116437535,7.095009187365577-4.337654781966194,4.014110212712694-11.496904698731669,13.612680654170617,3.423383533801825,26.667909585346933,7.922815150819588,36.396096672779095,18.829716518004716,1.029922995985544,1.154686624226088,1.911058672088984,2.47225716560024,3.066592501587365,3.479237611069038,4.614195225443837,4.020922166051605,4.541732939367648,4.342654507550833-.875913813435545,7.024364462904487-6.60837450604231,3.271070465039884-13.880354765226002,3.64569276077782-20.919997901828538,4.40704383064076-12.87067542863042,1.392066452614017-25.846217304831953,2.439401826031826-38.69006809646271-.730674182155781-1.675431060701158-.413548730664843-3.50451364212131-.700997239568096-4.806188093984019,1.027229334093136-4.428711802151156-1.427743065907634-8.296681392501341-3.75700807973044-11.510630566661348-7.1378225213939Z"/>
      <path class="cls-2" d="M113.911547773175698,113.530528673282788c-2.958936291768623,2.904795925412145-6.1263894284657.353266325018922-8.758065148860624-.259994658585128-16.896660013988367-3.937507101489246-38.386341673285642,9.686682625448157-42.380208226610193,26.630368730961891-.837500933253978,3.553117484693757-3.343279690672716,7.279752231485872-.433486133884799,11.071374482822648-.740288448772844,5.560980496031334,1.805333836135105,10.664807511817344,2.241109005708495,16.03524489450956.404014799369179,4.978816019957776.671402780963035,10.09189252807937-2.379738729712699,14.579699783107571-3.61431582289697-.495062113888707-5.248401176437255-1.195023696012868-2.670231665308165-5.465235751046748,3.359302940505586-5.564016043707852,1.679007678967537-12.053249163380315,1.092370750917325-18.185448307681327-.673334154827899-7.038185132919352-2.775241177609132-13.851355830196553-.821906877612491-21.179560759465858,4.511260151739407-16.92424074421524,20.911986276909374-30.158362594582286,38.308228330346537-30.189628735661245,2.921453332337478-.005249711865872,5.842906664673137-.030016209682799,8.764073867549087-.045702848710789-.000286129461529.000071424650741-.045423051982652-.05086327976278-.045351519618634-.050907920169266.395287850800742,1.119849250586412,1.318269960618636,1.093431057709495,2.255844672967214,1.035407456660323,1.609120558039649,2.008121925698106,3.218241116079298,4.016252779478236,4.827361674118947,6.024383633258367Z"/>
      <path class="cls-2" d="M67.01821955332889,2.381741874425643c-.518180454431786,5.588724508995256-2.93869263238048,10.459589980679993-6.201641476789518,14.833184754339527-3.652013379425625,4.895017047893816-5.951921989431867,10.465552823046892-8.454338725681737,15.904169499386626-1.936166532317657,4.207958775419684.733707471163143,8.139278716495028,5.358203357214734,8.996195969713881,6.458085006488545,1.196666462991743,12.918673645765011,2.383387043299081,19.360735402422506,3.661915084690008,3.544357169606883.703425677710584,5.836540284159128,1.627624952395308,4.464621049542984,6.554582211513662-2.869878496934689,10.306728950920842-3.373323284107755,20.991499652758648-2.767730279247189,31.689769613679346-2.766085034845673-.589646208289196-3.545144025627451-2.320685127594516-3.587634250632618-5.072694795927418-.126397689531586-8.19210840618689.856027815874768-16.281467987528231,2.771950688802463-24.166245047521443.982210908312481-4.042273672732335.927345584106661-5.403645381477872-3.761100236548373-5.799904882501323-7.290650206534337-.616193858345468-14.503544731960574-2.191611854726943-21.734823075272288-3.444833249375733-2.628385231590073-.455519641347564-3.960890132910208-2.153899638874464-4.17477190524005-4.851014998692335-.379121536234379-4.780541188122697.618826492447624-9.213291197149374,2.766585761402894-13.498152001747258,4.434005197186707-8.846164025749204,9.526751946670629-17.251747322361553,15.959943690026194-24.806972157557539Z"/>
      <path class="cls-2" d="M67.023656013094296,187.238501017456656c5.555632685518503,1.716387937719446,5.224723963514407,6.716774202352099,5.738111749467862,10.9268645572065.807099677989754,6.617208238526473-.540355487682973,13.113387405532194-2.237532387440297,19.511071978481596-1.046661569469507,2.601910763759406-2.374016140487583,5.123772349644241-2.300480868929299,8.044576325015441-1.730010255443631-.077745732872245-3.14577883000311,1.613947131682835-5.550768484676155.69678318514525,4.952400248712365-12.634395838172168,9.775398448548003-25.414801519636967,4.350669991577888-39.179296045848787Z"/>
      <path class="cls-11" d="M87.103792413614428,292.492706210567121c1.115618769645152.025266470376664,2.231309071657961.05053294074969,3.34699937366895.075781554962305-.026610039902152.456349952917662-.05336314453416.912682049673094-.080330846263678,1.369853386080649-1.182072337034697-.271824366445799-2.572232324806464-.075585137170492-3.266668527405272-1.445634941042954Z"/>
      <path class="cls-11" d="M84.762752693543007,291.325609553186951c.727341090649134.360462358632503,1.454753713664104.720924717265007,2.181951739583383,1.080779966359842-.929706152161089.046783146561211-1.755332712769814-.115315099421423-2.181951739583383-1.080779966359842Z"/>
      <path class="cls-11" d="M83.282748054918557,290.311361649455648c.442642276646438.310965075323111.88521302092704.62193015064986,1.327783765207641.932305972601171-.442713809012275-.311161493116742-.885213020925221-.621733732858047-1.327783765207641-.932305972601171Z"/>
      <path class="cls-1" d="M163.10828968892929,112.356521680895639c14.345243607491284-6.530400503029341,27.924375582324501-15.296571151413445,44.535478393925587-15.21430780935043,11.042880429786237,1.325507605742132,21.357132186345552,5.382258162471771,31.969816971050022,8.354425390163669,10.347728903532698,2.897930230812563,18.891983812431135,7.927689883265884,24.63102548264942,17.2294739912777,3.903306578822594,6.326286705956591,3.041913835548257,21.770644388861001-1.521779539974887,27.643000651959483-4.301527256599002,5.534999779143618-10.135206246146481,8.04130864722174-16.846301228797529,7.532390150993706-15.426598374144305-1.169846506452814-31.089897345156714-.828883077608225-46.137803377258024-4.865107975188948-10.385927186618574-2.785739959881539-21.160418181694695-4.927336702578941-29.730782403938065-12.514357783687046-3.514242043804188-3.111097102429994-5.959790549617537-6.230854443821954-6.999513479653615-10.900401723923096-1.302461307879639-5.849437878133358.874697763225413-11.5190017002069.09985918199709-17.265114892245037Z"/>
      <path class="cls-13" d="M163.10828968892929,112.356521680895639c.774838581228323,5.746113192038138-1.402320489876729,11.415677014111679-.09985918199709,17.265114892245037,1.039722930036078,4.669547280101142,3.485271435849427,7.789304621493102,6.999513479653615,10.900401723923096,8.57036422224337,7.587021081108105,19.344855217319491,9.728617823805507,29.730782403938065,12.514357783687046,15.047906032101309,4.036224897580723,30.711205003113719,3.695261468736135,46.137803377258024,4.865107975188948,6.711094982651048.508918496228034,12.544773972198527-1.997390371850088,16.846301228797529-7.532390150993706,4.563693375523144-5.872356263098482,5.425086118797481-21.316713946002892,1.521779539974887-27.643000651959483-5.739041670218285-9.301784108011816-14.283296579116723-14.331543760465138-24.63102548264942-17.2294739912777-10.61268478470447-2.972167227691898-20.926936541263785-7.028917784421537-31.969816971050022-8.354425390163669,1.270987067138776-7.321258881935137,5.099971518382517-9.974907877434816,15.28696719702566-10.512333737588051,1.931230799109471-.101896193072207,3.872261532269476-.018115077170478,5.808785726414499-.020016758508973,9.166658019610622,1.39670905494313,18.456351707585782,2.314864018517255,26.310748485266231,8.082011770344252,2.01892947899978,1.482418636429429,4.30360169519372,2.731314375638249,6.642566976668604,3.63031860459887,11.27407303452128,4.333413943297273,16.79672929962544,13.934315562609299,22.035259009648144,23.77198097269229,1.291802985448157,2.42591149502914,1.134002587536088,5.238953527845297,1.33822749054525,7.969812571332113.503516319538903,6.732675115334132-1.139725176761203,13.350856514734005-.299506013627251,20.180133470866167.687569095529398,5.587836164895634-3.508447922211417,10.23397401555394-6.485267305310117,14.631054107347154-7.796455561769108,11.516242923054051-18.353345101519153,14.812133454396644-32.331055415954324,11.829332881751725-19.068311092963995-4.069133805637648-38.56553024843015-6.093844106585493-57.802657723565062-9.432428723205703-9.763953270095953-1.694496282116233-19.123891740824547-4.680225265461559-27.380872670566532-10.755623955865303-7.315901131496503-5.382972408984642-15.75929540528341-9.113839066362743-21.971022945584991-16.165452033715155-3.371964169169587-3.827870261839962-5.77194655826861-7.716638966940081-6.159294316517844-12.78429832495658,9.163439063173428-7.054952069797764,19.032258780840493-12.701124318590701,30.471643111632147-15.210183035742375Z"/>
    </g>
  </g>
</svg>