<?xml version="1.0" encoding="UTF-8"?>
<svg id="Calque_2" data-name="Calque 2" xmlns="http://www.w3.org/2000/svg" viewBox="0 0 379.479558116096996 463.061568362968501">
  <defs>
    <style>
      .cls-1 {
        fill: #f9bc8d;
      }

      .cls-1, .cls-2, .cls-3, .cls-4, .cls-5, .cls-6, .cls-7, .cls-8, .cls-9, .cls-10, .cls-11, .cls-12, .cls-13, .cls-14, .cls-15 {
        stroke-width: 0px;
      }

      .cls-2 {
        fill: #f7c295;
      }

      .cls-3 {
        fill: #d2976f;
      }

      .cls-4 {
        fill: #e0a47a;
      }

      .cls-5 {
        fill: #d59a71;
      }

      .cls-6 {
        fill: #d99d73;
      }

      .cls-7 {
        fill: #ce966e;
      }

      .cls-8 {
        fill: #b78461;
      }

      .cls-9 {
        fill: #c28c67;
      }

      .cls-10 {
        fill: #f2b081;
      }

      .cls-11 {
        fill: #eead7e;
      }

      .cls-12 {
        fill: #e9a97b;
      }

      .cls-13 {
        fill: #e3a478;
      }

      .cls-14 {
        fill: #f6b98b;
      }

      .cls-15 {
        fill: #f6b583;
      }
    </style>
  </defs>
  <g id="Calque_1-2" data-name="Calque 1">
    <g>
      <path class="cls-12" d="M317.983970500139549,195.16623626900855c2.862832558950686,10.361181319407478-.189346171022407,20.070166292203794-3.312628072130792,29.765384163475574-.343069224109058,1.064905837621154-.846335180370261,2.078385926351984-1.510584724800538,3.68472633267902,10.993630396256776-1.369639112126606,19.234409245253119,2.958016218663943,25.184149497543331,11.404749042472758,5.405629315427177,7.674328789162246,6.944898518725495,16.256822018807725,4.197018470855255,25.409569663932416-10.426879465768252.76715432277706-20.513765599134786,3.808969513507691-31.078130271062037,4.062080621328278-7.403850174665422.177400977509024-14.630300083319526,2.334675431155119-22.278057740659278,2.17027374017016-7.425667546091063-.159598383190314-14.868520742952569,2.599035921546601-22.360927985892886,2.992603606027842-18.201267292829471.956090381459944-36.401407950906105,1.650516553114358-54.549687644118421,3.566447110228182-14.824599870640668,1.565074814074251-29.723182090120645,2.433527148466965-44.590200653400643,3.594731272120043-3.274823217054291.255789532242488-6.409282050244656,1.822132133876949-9.786700562270198,1.072816117746697-15.025212389200533-3.333567034869702-30.484241749475586-2.333389787432679-45.620964154676585-4.568409973948292-12.430205947582181-1.835381406681336-24.969775940203363-3.099687014393567-37.279887987945585-5.530803580883003-11.9722468032096-2.364352373744623-23.725640334700074-5.847607621446514-35.546488886694533-8.948455286423268-1.949060241167899-.511275509719781-3.562365442578994-.766368651611629-5.56543709034213.157294938187988-9.193408888857448,4.239160187908055-12.912499508482142,3.491094103173964-20.409764246106533-3.454328263951538-3.41238666173831-3.161201495271598-6.779928118881799-6.477412339891089-11.845981560321889-6.801805249648169-2.106768429389376-10.523279565391931-2.138279554009387-21.065111683939904-.283618004670643-31.623782164017939,7.287108795604581,1.801508265831217,14.868947142910656,2.066029461688231,22.037822439021511.877987525333083,7.053216402921862-1.168882273659619,13.472638165952048-.153080883763323,20.061193736025416,1.476686808168779,10.035807553750601,2.4824708907272,20.134661945990956,3.998709099517328,30.551187101877076,3.596963292470718,8.567243622805108-.330428292786564,17.241052586857222-.676587865007605,25.727142741198804.257128744454349,16.370798771828959,1.801293991877174,32.754035233680042,3.262660212354604,49.180817022923293,4.378009709913385,8.99138584146931.610466494124012,17.868874274245172-1.64692746439141,26.774725289873459-1.104564375221344,19.008098724448246,1.157597178765172,37.136438770827226-1.970088298915471,54.800229753677741-8.981310625992592,7.354922036781318-2.919357626183228,14.904304808706001-5.458253991388119,23.156993796529605-5.310851367397845,11.4330894826453.204238790212912,21.339123913372532-4.20676910857128,30.489436787507657-10.9223826603411,6.135938999237624-4.503324260508634,13.050042834688611-7.925511431402811,20.791525773700414-8.511872105735165,4.537834425458641-.343713277916322,8.771227104082755-1.527737577639527,13.06681717435913-2.708887035149019Z"/>
      <path class="cls-15" d="M310.743285650784856,133.192477027300811c-3.265380944830213,8.436376249377645-3.001104621128434,17.062527797092116-1.388335912457478,25.76113965348668-10.922241095659047,1.353943545015682-22.170544595573119.65069642893468-32.509618082901397,5.627941106566141-4.720635385051537,2.272500272251818-9.767440472905946,3.604320031548014-15.046296553881803,4.313191838914463-8.197698481977568,1.100868149520466-16.655148865550473,1.081369219732551-24.302191199238223,5.083221003904328-1.222649071268279.6398398819465-3.270459742770072.552023273250597-4.591966542919181-.009070930706912-3.166326501944241-1.344408354076222-6.165267269022479-.749583858572805-9.087775703747866.258753655270084-8.081959114878373,2.788507665116413-16.27051933718667,5.454789895803515-24.423831986478945,7.776626745899193-10.084239435848758,2.871735239969894-18.870577752106328,9.399501958985638-29.449535026559715,10.250990938710856-6.491186608544922.522453467637206-12.387474300844588,3.895089786735298-19.432929442128625,2.271125347715497-10.383736507928916-2.393422206796458-20.788387291171603-4.667065273470143-31.164916913295201-7.133304912204039-14.132264931272402-3.358851361408597-26.820693776140615-8.985506824252298-37.903328317956039-18.236695494943888-1.809965556788484-1.510881359947234-3.667428604153429-2.522379414606803-5.8203292618673-1.935072363645304-5.182734465067369,1.413904539729629-10.564226077968669.32821412859812-15.651174235089456,1.260859368291676-7.282817412532495,1.335248142554519-14.687105722935485.783956971979933-21.883234850236477,4.851840846221421-6.495637262899436,3.671869895455529-14.742214704260732,6.72193463340318-22.758368513810638,1.933643870620472,7.155141081967486-16.855039185247733,17.969915975655567-31.363225036304357,29.73413771894684-45.139174290958181,29.393556479920335-34.419923338735316,64.786492202892987-61.426365178665947,104.32319055073549-83.229489927676696C187.510617153523526,25.875027933900128,227.768531633233579,10.804364026267649,270.828333096636925,3.706602922145066c15.313487821470517-2.524198511192481,30.834240671477346-2.909698000108619,47.911162246090498-3.706602922145066-10.69601999031147,12.173045601663034-18.899673541703123,24.248556936026034-23.556001330326581,38.382957498974974-8.857584552122717-1.479847348984549-17.038902122441868-6.735152657923209-26.542137804010963-4.657878277705095-8.034622572122316,1.756247357150642-15.92321182042997-1.970675320266309-24.449923416731508.99603908170684-19.57713869062809,6.811496682014877-40.063328562928291,11.047911484891301-59.560404653663682,18.050888728791506-20.744672074411028,7.451104433844193-40.100596925265563,17.847783804915707-54.539896651614981,35.471303133029323-2.73326062070646,3.336004401094215-4.34934664281991,6.928923272688735-2.987424056260352,10.691538187542392,1.964967250907648,5.428675257694522-.26551025700337,9.13823951284121-3.736913355523029,12.454155730774801-7.747375417605326,7.400406323587958-9.541255133740378,15.356594642697019-5.485191188762656,25.712035205760913,3.264263251622651,8.333908659096778,7.466065449409143,14.556067151629577,15.994377582384914,17.873617208460928,6.515775859125824,2.534646598456675,12.752870564481782,5.795931886274957,19.065637570809486,8.833979426652149,4.045834816735805,1.947071705053531,7.937392204551543,2.463918337569339,12.279102767372933.590235461661905,6.576560486562812-2.838183510051749,13.871055557734508-3.612837421208496,20.382002982200902-6.785395436028011,2.683071724883121-1.307374672409424,5.898183299980701-2.092688712763447,8.273773152503054.130778536416074,2.643067249574415,2.473810651765234,5.617472415345219,2.01737141803369,8.6605665349216,2.467007453734368,5.619278607568049.830293714470827,11.110192385557639-2.965105115300503,16.677735209903403-.286394995298906,6.555673035887594,3.154094742474626,13.965800175610639,1.12290265442698,18.350877234911422-2.027674423974531,8.304889731422008-5.966851076685998,17.636501385478368-6.858962826801871,26.675545665346363-9.233582494161965,14.073366969972085-3.697163150075539,27.773799953310117-8.236815773820126,40.774503339013791-14.780394125002204,1.881336974293845-.946939098022995,3.812675071951162-.529961984098918,5.727560725583317-.690738874034651Z"/>
      <path class="cls-14" d="M310.743285650784856,133.192477027300811c-1.914885653632155.160776889935732-3.846223751289472-.256200223988344-5.727560725583317.690738874034651-13.000703385703673,6.543578351182077-26.701136369041706,11.083230974926664-40.774503339013791,14.780394125002204-9.039044279867994,2.374619667360093-18.370655933924354,3.266731417475967-26.675545665346363,9.233582494161965-4.385077059300784,3.150577078401511-11.795204199023829,5.181769166449158-18.350877234911422,2.027674423974531-5.567542824345765-2.678710120001597-11.058456602335355,1.116688709769733-16.677735209903403.286394995298906-3.043094119576381-.449636035700678-6.017499285347185.006803198030866-8.6605665349216-2.467007453734368-2.375589852522353-2.223467249179521-5.590701427619933-1.438153208825497-8.273773152503054-.130778536416074-6.510947424466394,3.172558014819515-13.80544249563809,3.947211925976262-20.382002982200902,6.785395436028011-4.34171056282139,1.873682875907434-8.233267950637128,1.356836243391626-12.279102767372933-.590235461661905-6.312767006327704-3.038047540377192-12.549861711683661-6.299332828195475-19.065637570809486-8.833979426652149-8.528312132975771-3.317550056831351-12.730114330762262-9.53970854936415-15.994377582384914-17.873617208460928-4.056063944977723-10.355440563063894-2.262184228842671-18.311628882172954,5.485191188762656-25.712035205760913,3.471403098519659-3.315916217933591,5.701880606430677-7.025480473080279,3.736913355523029-12.454155730774801-1.361922586559558-3.762614914853657.254163435553892-7.355533786448177,2.987424056260352-10.691538187542392,14.439299726349418-17.623519328113616,33.795224577203953-28.02019869918513,54.539896651614981-35.471303133029323,19.497076090735391-7.002977243900204,39.983265963035592-11.239392046776629,59.560404653663682-18.050888728791506,8.526711596301539-2.96671440197315,16.415300844609192.760208275443802,24.449923416731508-.99603908170684,9.503235681569095-2.077274380218114,17.684553251888246,3.178030928720545,26.542137804010963,4.657878277705095-1.096555394286952,7.917270812265997.533881808621118,9.74689807048253,8.811213696300001,10.581137996933649,6.366523578870328.641652282470204,12.689662778169804,1.708093750094122,19.054433814089862,2.372767090468187,3.681162818296798.384425329121768,3.329402411799492,2.643372773801275,2.631103461472776,5.0054350946657-2.294507916424664,7.762029332801831-2.079624690981291,15.724400348284689-2.272046753711948,23.685820523096481-.086804525324624,3.589802971184326,1.184397138908025,5.609379625325346,4.340762758980418,7.317848354839043,11.285124784966683,6.108486160089342,21.258202925097066,13.998999512386035,31.881581798419575,23.968193417721523-10.17283227030839-2.16705963086406-18.4812449707224-2.195450929731123-26.632000337954196,1.301142871589036-9.916889467165674,4.25421293315685-16.927669294357656,11.464763605674307-22.255256799212475,20.577174179012218ZM232.181309601008252,144.879665925009249c7.962839843517031,1.789499996342784,14.392329786966911-4.939782448056576,22.413271794220236-5.385356206718825,4.861268015286441-.270047678247465,9.216319364240917-2.842933249360613,13.660643105124109-4.886383593176106,14.910903669408071-6.855909422962213,25.853531489186935-18.26788128329099,35.91166161169167-30.702073824045328,1.808660091121055-2.235957635064551,3.40086324476124-5.170198372949017,2.446979153119173-8.084333071510628-4.564659062454666-13.944886410992694-12.222556432580859-26.064560500023617-25.665759030200206-32.552932059840714-10.271010441719227-4.95731719993546-21.584515692629793-7.776890124300735-32.479449307826144-11.412471832886695-1.598694715793499-.533479648172943-3.479316366433522-.596605647744582-5.176493266191756-.406263416238289-16.368822690236811,1.83580549054841-32.752005502814427,3.942832702046871-48.651718941234321,8.204192564367986-22.042000935080068,5.907582008281679-43.199665120709142,12.958686074993238-52.847566069606728,37.42175411689368-2.601229757403416,6.59564692193544-5.008973408141173,11.204385039589397-.004917850115817,17.007637952616278.83758140716327.971357400663692.874402692215881,2.586938371243377,1.556320730882362,3.743071344658347,7.116951740428703,12.066123456766036,13.96295676408954,24.439542547399469,29.387283985633985,27.747557413290451,7.943007495230631,1.703495788171494,16.215993791715846,4.111310062193297,23.910175954154511.949251471105526,5.712681993594742-2.347728286168604,11.22271279621782-2.500059211094595,17.030532835698068-2.883118543761157,6.11113515155921-.403076091176445,11.96412787974532,1.644936502237215,18.509035294650857,1.239467685245472Z"/>
      <path class="cls-9" d="M271.597145076084416,401.401095497750248c-.883996970715998,1.265787669226484-1.921788526886303,2.452793948139515-2.620874333231768,3.813290704905739-1.598015158322596,3.109972164173087-2.136707518511685,5.617227408880353,1.649482695177539,8.229584027883902,8.551765807256743,5.90042615103448,15.242885376891536,13.727782255475176,21.026455944525878,22.360129891683755,1.922807863092203,2.869949623691355,1.772518363539348,4.577605897795365-1.275153827417853,6.514392453073015-10.126443531391487,6.435361076475601-20.410705343788322,12.445995464369844-32.342071400213172,14.954822051404335-11.421197226910408-5.33352869416558-24.197503582582613-5.169359133296894-36.098843928662063-8.926331500701053-9.999884894036768-3.156791023058759-19.851662025663245-6.903299679059273-30.048868949455937-9.479943972442925-.671706793516023-.169740683664713-1.198667845790624-.910628590949273-1.792940853840264-1.385816795631399,1.345416493260927-1.706584904337433,3.217704623340978-1.432349955912287,4.837197374352399-.901414810938149,13.15346075186244,4.312084756820695,26.166575002950594,9.050610393853276,39.992583053621274,10.993718030764285,7.864572256647989,1.105296477895536,15.648330823567449,2.796310808264025,23.643914607313491,2.753527442171617,1.414445225801501-.007571013029519,2.930144514723906-.127028742224866,3.521323747972019-1.55859302697354.749569773174699-1.81515037421741-1.281251961561793-2.075778926582643-2.100208129103521-3.008620584067103-1.861254262727925-2.119990785698974-4.358306071578227-3.324103268580075-6.899743713112912-4.276015307945272-11.834207221219913-4.432471006482956-23.816164543021841-8.48849838861679-35.548241429645714-13.17138422233802-12.068153822022396-4.816985616416787-25.030515859911247-7.82632044699676-35.738606936872202-15.552860656216581-24.464748499445705-17.652745402590881-51.394296652523735-30.77538230045684-78.699318191205748-43.192522205730711-9.005969502449261-4.095525214268491-18.017232399933164-8.322328937512793-27.614139713898112-11.014895439855536-1.132938543601085-.317839698005628-2.314626394173501-.979053406834282-3.210560328353495.14017087805405-.875278963691926,1.093475698115071-.238631970732058,2.199343573223814.535312455927851,3.147148695139549,3.556374606982899,4.355225246170448,6.606067587260441,9.290525797361624,10.782887106456656,12.938646996282841,9.115574969222507,7.961670161092115,18.689824406470507,15.383441383481113,28.629648938268474,22.375664753328238,4.841542965546978,3.405848781922032,10.605942859274364,6.417719187620605,13.163063971906922,12.470208421140342-22.350958162474853-12.95318191280785-42.557286596977974-28.71767381063728-61.009230122551344-46.727042496855574-12.532421226861516-12.231864359962856-24.532087279855659-24.948452115548207-33.765654885686672-39.975413064703389,1.947321110535995-4.150807894326135,4.192883005985095-8.179336785737178,9.598208308860194-4.661529862998577,4.453077514090182,2.898126648602556,9.349293560611841,4.722776501435874,14.077752798120855,6.98554516495642,26.675375775978864,12.765156518426011,53.827407468315869,24.492298580420538,81.604015066964166,34.550567953929203,27.70449403285329,10.032199375809796,55.542923478235934,19.781378571091409,84.373721427805322,26.451369626882297,17.370293687911726,4.018600864887048,34.56733598700157,8.927974267680838,51.328889245977734,15.153596855798241Z"/>
      <path class="cls-11" d="M317.983970500139549,195.16623626900855c-4.295590070276376,1.181149457509491-8.528982748900489,2.365173757232697-13.06681717435913,2.708887035149019-7.741482939011803.586360674332354-14.65558677446279,4.008547845226531-20.791525773700414,8.511872105735165-9.150312874135125,6.71561355176982-19.056347304862356,11.126621450554012-30.489436787507657,10.9223826603411-8.252688987823603-.147402623990274-15.802071759748287,2.391493741214617-23.156993796529605,5.310851367397845-17.663790982850514,7.011222327077121-35.792131029229495,10.138907804757764-54.800229753677741,8.981310625992592-8.905851015628286-.542363089170067-17.783339448404149,1.715030869345355-26.774725289873459,1.104564375221344-16.42678178924325-1.115349497558782-32.810018251094334-2.576715718036212-49.180817022923293-4.378009709913385-8.486090154341582-.933716609461953-17.159899118393696-.587557037240913-25.727142741198804-.257128744454349-10.41652515588612.401745807046609-20.515379548126475-1.114492401743519-30.551187101877076-3.596963292470718-6.588555570073368-1.629767691932102-13.007977333103554-2.645569081828398-20.061193736025416-1.476686808168779-7.168875296110855,1.188041936355148-14.75071364341693.923520740498134-22.037822439021511-.877987525333083.051271381695187-6.074559450751622,1.288146452116962-11.921595674987657,3.388454055916554-17.602837427539271,2.924108971399619.130724967926653,5.750397433214857-.004214054422846,8.625864396190991-.947858690406974,10.843901978695612-3.558554686268508,22.174197216978428-4.520662594597525,33.342684009505319-3.384474955040787,8.383195317590435.852846048099309,16.693275616271421.514703892979014,25.027627740661046.887629853252292,1.94509913643833.087048793694521,3.926599305281343-.081763369504188,5.83304413980477.226558993723302,21.759698455315629,3.519146134948642,43.564015223504612,6.754397137391607,65.162131007090466,11.256810733598286,5.366608410141453,1.118777880816197,10.834202637033741,2.002050830343251,16.680685919974167.648392983930535,12.996894287250143-3.009227693602043,26.177161793018968-5.292959492261616,39.351849774290713-7.451519589628333,9.875883538742528-1.618071905292709,19.092775161905593-4.210983162995944,27.097336257499592-10.708787240816491,5.371329546252127-4.360260684081368,10.757341110489506-9.759982173781282,17.486623197026347-11.15399494814119,11.76694891472016-2.437634065913699,23.291850188263197-5.822519712698522,35.06915341286458-8.150534795126077,10.769966572968769-2.128901010939444,20.964973876527438-7.209068611004113,32.334184956936042-6.257763681175675-1.438909294743098,8.071289144579168-2.321690215248964,15.919090555435105,5.940870238989191,21.417110221399525.956995749533235.636804334269073.889755326125851,2.808238725021511,1.297382509944327,4.268176452474108Z"/>
      <path class="cls-13" d="M1.629696888116086,253.743110522523239c5.06605344144009.32439290975708,8.433594898583578,3.640603754376571,11.845981560321889,6.801805249648169,7.497264737624391,6.945422367125502,11.216355357249086,7.693488451859594,20.409764246106533,3.454328263951538,2.003071647763136-.923663589799617,3.61637684917423-.668570447907769,5.56543709034213-.157294938187988,11.820848551994459,3.100847664976754,23.574242083484933,6.584102912678645,35.546488886694533,8.948455286423268,12.310112047742223,2.431116566489436,24.849682040363405,3.695422174201667,37.279887987945585,5.530803580883003,15.136722405200999,2.235020186515612,30.595751765476052,1.23484293907859,45.620964154676585,4.568409973948292,3.377418512025542.749316016130251,6.511877345215908-.817026585504209,9.786700562270198-1.072816117746697,14.867018563279998-1.161204123653079,29.765600782759975-2.029656458045793,44.590200653400643-3.594731272120043,18.148279693212316-1.915930557113825,36.348420351288951-2.610356728768238,54.549687644118421-3.566447110228182,7.492407242940317-.393567684481241,14.935260439801823-3.152201989218156,22.360927985892886-2.992603606027842,7.647757657339753.16440169098496,14.874207565993856-1.992872762661136,22.278057740659278-2.17027374017016,10.564364671927251-.253111107820587,20.651250805293785-3.294926298551218,31.078130271062037-4.062080621328278-1.81667171603749,9.221815282870011-6.182613867613327,17.21760857109075-11.860280768381017,24.582311497142655-2.286353226777464.391657075057083-4.560438652901212.890361846160886-6.861527546936486,1.156865076089161-11.161731454775691,1.292750475067805-22.224175986477348,3.175879261101727-33.503864311678626,3.791916878022676-16.628413644010834.908164440483233-33.18184348606701,3.105722397423961-49.797828381600993,4.344511548482842-13.735966685813764,1.024050937114225-27.707864995569253,1.212362030100849-40.705528255747595,5.91196123221016-9.706995624203046,3.509771649472896-19.472075529052745,3.362351169318572-28.377872895408473.65135710695904-19.275737069320712-5.867677948443088-39.9753169289379-3.295319134134843-58.802179464284563-10.949041911417225-1.356709665436938-.551523300689951-3.113481967057851-.028623428983337-4.648727474806037-.250414827236455-12.248263376372051-1.769402885100135-24.690146982592523-1.965999237630967-36.752193728924794-5.33604641312013-12.509030143400196-3.494915322016823-24.421936378797909-9.186817203764804-37.497511797136212-10.549867391815496-6.011454800476713-.626662033791945-12.026852822591536-.654803346380504-16.744993516403156-5.348331453133142-2.331014011992011-2.318837014743622-5.04934448682252-4.245749111985788-7.545157891597228-6.404505627142498-1.645379643407978-1.423171888227444-3.207892394664668-2.431509402071242-4.816944773419891-.002339157328606-1.803842274546696-4.247641865242258-2.287714577104452-8.792213861841446-2.997617977165646-13.285931506758061Z"/>
      <path class="cls-10" d="M310.74571775120603,169.480949595134916c-11.369211080408604-.951304929828439-21.564218383967273,4.128862670236231-32.334184956936042,6.257763681175675-11.777303224601383,2.328015082427555-23.30220449814442,5.712900729212379-35.06915341286458,8.150534795126077-6.729282086536841,1.394012774359908-12.11529365077422,6.793734264059822-17.486623197026347,11.15399494814119-8.004561095593999,6.497804077820547-17.221452718757064,9.090715335523782-27.097336257499592,10.708787240816491-13.174687981271745,2.158560097366717-26.35495548704057,4.44229189602629-39.351849774290713,7.451519589628333-5.846483282940426,1.353657846412716-11.314077509832714.470384896885662-16.680685919974167-.648392983930535-21.598115783585854-4.502413596206679-43.402432551774837-7.737664598649644-65.162131007090466-11.256810733598286-1.906444834523427-.308322363227489-3.88794500336644-.139510200028781-5.83304413980477-.226558993723302-8.334352124389625-.372925960273278-16.644432423070612-.034783805152983-25.027627740661046-.887629853252292-11.168486792526892-1.136187639556738-22.498782030809707-.174079731227721-33.342684009505319,3.384474955040787-2.875466962976134.943644635984128-5.701755424791372,1.078583658333628-8.625864396190991.947858690406974,2.051398466700448-10.284221257698846,5.407222028248725-20.097289803511558,10.595414189252551-29.248555387121996,8.015659789151869,4.788022920340154,16.262237230513165,1.737958182392504,22.757874493412601-1.933911713063026,7.196129127300992-4.067883874241488,14.600417437703982-3.516592703666902,21.883234850236477-4.851840846221421,5.086948157120787-.932645239693557,10.468439770022087.153045171437952,15.651174235089456-1.260859368291676,2.152900657713872-.587307050961499,4.010363705078817.42419100369807,5.8203292618673,1.935072363645304,11.082634541815423,9.25118867069159,23.771063386683636,14.877844133535291,37.903328317956039,18.236695494943888,10.376529622123599,2.466239638733896,20.781180405366285,4.739882705407581,31.164916913295201,7.133304912204039,7.045455141284037,1.623964439019801,12.941742833583703-1.748671880078291,19.432929442128625-2.271125347715497,10.578957274453387-.851488979725218,19.365295590710957-7.379255698740963,29.449535026559715-10.250990938710856,8.153312649292275-2.321836850095679,16.341872871600572-4.988119080782781,24.423831986478945-7.776626745899193,2.922508434725387-1.008337513842889,5.921449201803625-1.603162009346306,9.087775703747866-.258753655270084,1.321506800149109.561094203957509,3.369317471650902.648910812653412,4.591966542919181.009070930706912,7.64704233368775-4.001851784171777,16.104492717260655-3.982352854383862,24.302191199238223-5.083221003904328,5.278856080975856-.70887180736645,10.325661168830266-2.040691566662645,15.046296553881803-4.313191838914463,10.339073487328278-4.977244677631461,21.587376987242351-4.273997561550459,32.509618082901397-5.627941106566141.463029000764436,3.509093115286305.926916389913458,7.01822194289889,1.390768012878652,10.527332914347426Z"/>
      <path class="cls-6" d="M14.10981957322474,293.805143833012153c-3.569527620657936-5.936477743747673-5.680758440182217-12.472654715445969-7.834077115155196-18.991671914684048,4.49570409766693-.191221647524799,6.995476371784207,3.007263515693921,9.695051954580777,5.780772004050959,4.591962072146998,4.717741063523135,10.132040938980026,7.083879053549026,16.714594496525024,7.089039484599198,1.359749790963178.001071369768397,2.86451356953603-.195507126600205,4.056926804134491.294555261702044,13.967351533783585,5.740452788428229,29.333514000772084,5.493805611542484,43.528857065945886,10.246705459638179,11.875275740462712,3.976103197399425,24.543469867488056,3.77236437974716,36.579121171015686,6.485144058389778,14.717632159839013,3.317317926712349,29.219460115030415,7.42955650937256,44.054360646277928,10.537885906567681,22.946581343919206,4.808021822685987,46.122102023069601,8.88001261437239,68.70199057922855,15.429867406784979,8.576355057839464,2.487792027244723,16.861591271886937,3.037047595258628,25.164674811083387-1.818543045152182,7.547576579700944-4.413793460184024,15.876912496972182-7.156857190950177,24.735874047129073-7.988240131351631,5.592114191835208-.524828337291183,11.702230007189428-.104672826388196,16.621779017125846-2.274410881673248,10.481458660512544-4.622817702029351,21.242179675262378-7.115180906954265,32.518041018919575-8.239833465335323,11.565209761404731-1.153579542135049,23.085962157759241-2.755563044733208,34.654033213777439-3.874323069388993,3.118203103170345-.301554877523813,6.766782929060355-.616037616920948,8.437421321282272,3.339602417900096-20.63941219883236,7.432342070773302-41.280111980239781,14.860970059680767-61.917485506659432,22.298918965576377-7.240327187527328,2.609535345278346-14.377647768983479,5.558980605796023-21.741708065435887,7.751610261801034-4.848803500627582,1.443706475458384-4.955029063137772,4.136558676405912-3.305045641405741,7.775644656943768.986270370043712,2.175237753432157,1.597836327410732,4.348154205696119,1.554416181656961,6.717916996773056-13.188153949045955,1.666908510575013-26.454653721215436.566683182916677-39.251972709203073-1.830899509815936-16.343410817454242-3.061974798541996-32.849826012398808-5.184144036104044-49.112190659937369-8.67595238578906-10.218058608285901-2.193951012057369-20.580862957811405-3.776007036962255-30.711884560585531-6.300261348662389-16.614321768040099-4.139629936409619-32.514974068755691-10.637737568999-48.854486372300016-15.636641772116491-30.409919621900372-9.303560796211968-61.095028723988435-17.718491794055808-91.736764623437921-26.248398624227775-4.007674535219849-1.115653052325797-7.974886340914964-4.01227978325187-12.551527074562728-1.868486732530073Z"/>
      <path class="cls-4" d="M371.738468605095477,309.821693325059641c-1.670638392221917-3.955640034821045-5.319218218111928-3.641157295423909-8.437421321282272-3.339602417900096-11.568071056018198,1.118760024655785-23.088823452372708,2.720743527253944-34.654033213777439,3.874323069388993-11.275861343657198,1.124652558381058-22.036582358407031,3.617015763305972-32.518041018919575,8.239833465335323-4.919549009936418,2.169738055285052-11.029664825290638,1.749582544382065-16.621779017125846,2.274410881673248-8.858961550156891.831382940401454-17.188297467428129,3.574446671167607-24.735874047129073,7.988240131351631-8.30308353919645,4.85559064041081-16.588319753243923,4.306335072396905-25.164674811083387,1.818543045152182-22.579888556158949-6.549854792412589-45.755409235309344-10.621845584098992-68.70199057922855-15.429867406784979-14.834900531247513-3.108329397195121-29.336728486438915-7.220567979855332-44.054360646277928-10.537885906567681-12.035651303527629-2.712779678642619-24.703845430552974-2.509040860990353-36.579121171015686-6.485144058389778-14.195343065173802-4.752899848095694-29.5615055321623-4.50625267120995-43.528857065945886-10.246705459638179-1.192413234598462-.490062388302249-2.697177013171313-.293483891933647-4.056926804134491-.294555261702044-6.582553557544998-.005160431050172-12.122632424378025-2.371298421076062-16.714594496525024-7.089039484599198-2.69957558279657-2.773508488357038-5.199347856913846-5.971993651575758-9.695053072274277-5.780772004050959-.548182693220042-2.596053942359504-1.096592278161552-5.192125740879419-1.646714169099141-7.786322642305095,1.607340072760053-2.427277491484347,3.169852824016743-1.418939977640548,4.815232467424721.004231910586896,2.495813404774708,2.158756515156711,5.214143879605217,4.085668612398877,7.545157891597228,6.404505627142498,4.71814069381162,4.693528106752638,10.733538715926443,4.721669419341197,16.744993516403156,5.348331453133142,13.075575418338303,1.363050188050693,24.988481653736017,7.054952069798674,37.497511797136212,10.549867391815496,12.062046746332271,3.370047175489162,24.503930352552743,3.566643528019995,36.752193728924794,5.33604641312013,1.535245507748186.221791398253117,3.292017809369099-.301108473453496,4.648727474806037.250414827236455,18.826862535346663,7.653722777282383,39.526442394963851,5.081363962974137,58.802179464284563,10.949041911417225,8.905797366355728,2.710994062359532,18.670877271205427,2.858414542513856,28.377872895408473-.65135710695904,12.997663260178342-4.699599202109312,26.96956156993383-4.887910295095935,40.705528255747595-5.91196123221016,16.615984895533984-1.238789151058882,33.169414737590159-3.436347107999609,49.797828381600993-4.344511548482842,11.279688325201278-.616037616920948,22.342132856902936-2.49916640295487,33.503864311678626-3.791916878022676,2.301088894035274-.266503229928276,4.575174320159022-.765208001032079,6.861527546936486-1.156865076089161.091919089445582,1.706227781080088,1.419094829548158,1.946196753073309,2.682928660152356,2.554859774754732,14.484517122782563,6.975884980878618,29.684107535560543,11.612701914549689,46.114984552718852,14.126456802519897-2.526809272824721,2.050744586324072-5.111130567373948,2.641569301358686-7.741089511001519,3.12739977907404Z"/>
      <path class="cls-7" d="M271.597145076084416,401.401095497750248c-16.761553258976164-6.225622588117403-33.958595558066008-11.134995990911193-51.328889245977734-15.153596855798241-28.830797949569387-6.669991055790888-56.669227394952031-16.419170251072501-84.373721427805322-26.451369626882297-27.776607598648297-10.058269373508665-54.928639290985302-21.785411435503192-81.604015066964166-34.550567953929203-4.728459237509014-2.262768663520546-9.624675284030673-4.087418516353864-14.077752798120855-6.98554516495642-5.405325302875099-3.5178069227386-7.650887198324199.510721968672442-9.598208308860194,4.661529862998577-3.895641438798521-4.651209000894596-7.148137616324675-9.704574500583476-9.574839579260697-15.273733119180179,5.057110219233437-2.262482964917581,9.856735218697395-3.344495006509533,15.504264639798748-.835097022265472,21.642067951307581,9.616543617932621,44.125955602425165,17.100168588292945,66.305182438840347,25.355715476900514,8.914747853566041,3.318210734856621,17.689480043549338,7.041863502458,26.703988722109898,10.056019496996669,17.986679138392901,6.014241332783058,34.675305150916756,15.707459313818617,53.731259027769738,18.697116652982004,15.085299576076068,2.36672724339769,30.052606515544539,5.811823871175875,45.217628912778309,7.249744949884189,14.90968761919703,1.413708121939635,29.222938376294223,5.685509375462061,44.011879362818945,7.390130101892282-4.552319729436022,6.229943779517271-3.936837375067626,8.257582491167341,3.176788110373309,10.897723299500285,3.217096598235912,1.194005894732982,6.419135633568658,2.478185411653612,9.135666622334611,5.559587715331872-5.148863890085522,2.419438636010455-9.547961292990294,5.42759495984501-13.229231409834938,9.38234218652542Z"/>
      <path class="cls-8" d="M125.389443236594161,409.624001320741627c-2.557121112632558-6.052489233519736-8.321521006359944-9.06435963921831-13.163063971906922-12.470208421140342-9.939824531797967-6.992223369847125-19.514073969045967-14.413994592236122-28.629648938268474-22.375664753328238-4.176819519196215-3.648121198921217-7.226512499473756-8.583421750112393-10.782887106456656-12.938646996282841-.773944426659909-.947805121915735-1.410591419619777-2.053672997024478-.535312455927851-3.147148695139549.895933934179993-1.119224284888332,2.077621784752409-.458010576059678,3.210560328353495-.14017087805405,9.596907313964948,2.692566502342743,18.608170211448851,6.919370225587045,27.614139713898112,11.014895439855536,27.305021538682013,12.417139905273871,54.234569691760043,25.53977680313983,78.699318191205748,43.192522205730711,10.708091076960955,7.72654020921982,23.670453114849806,10.735875039799794,35.738606936872202,15.552860656216581,11.732076886623872,4.68288583372123,23.714034208425801,8.738913215855064,35.548241429645714,13.17138422233802,2.541437641534685.951912039365197,5.038489450384986,2.156024522246298,6.899743713112912,4.276015307945272.818956167541728.93284165748446,2.84977790227822,1.193470209849693,2.100208129103521,3.008620584067103-.591179233248113,1.431564284748674-2.106878522170518,1.551022013944021-3.521323747972019,1.55859302697354-7.995583783746042.042783366092408-15.779342350665502-1.648230964276081-23.643914607313491-2.753527442171617-13.82600805067068-1.943107636911009-26.839122301758835-6.681633273943589-39.992583053621274-10.993718030764285-1.619492751011421-.530935144974137-3.491780881091472-.805170093399283-4.837268906718236.901200536984106-9.345864477847499-3.691011701987009-18.548074083028041-7.823106337689751-28.087987984918072-10.917150804638368-6.340718278078384-2.056422846095302-11.58146549142657-7.204675994951685-18.805697896755191-6.657920289731919-1.556436970975483-.797456231064643-3.112873941952785-1.594912462127468-4.669301971383902-2.392297268539551-3.116593624949928-4.701884790949407-7.070339462872653-8.020881196966002-13.10203792273569-7.907137439873622l-.039789878213924.017499039553513Z"/>
      <path class="cls-5" d="M14.10981957322474,293.805143833012153c4.576640733647764-2.143793050721797,8.543852539342879.752833680204276,12.551527074562728,1.868486732530073,30.641735899449486,8.529906830171967,61.326845001537549,16.944837828015807,91.736764623437921,26.248398624227775,16.339512303544325,4.99890420311749,32.240164604259917,11.497011835706871,48.854486372300016,15.636641772116491,10.131021602774126,2.524254311700133,20.49382595229963,4.10631033660502,30.711884560585531,6.300261348662389,16.262364647538561,3.491808349685016,32.768779842483127,5.613977587247064,49.112190659937369,8.67595238578906,12.797318987987637,2.397582692732612,26.063818760157119,3.497808020390949,39.251972709203073,1.830899509815936.783994723988144,2.930803426543207,1.583815983804925,5.857392798663568,2.346261582739317,8.79369592335388.774570334855525,2.982979134272682-.639570878392988,4.276622417481121-3.494302396969942,4.415364802511249-2.344348091966822-4.291871580520819-6.975961448369162-3.589802971186145-10.38018671430109-3.629300803318984-22.789174374015602-.264485483532553-44.804672567742273-6.249371284655354-67.302155839044644-8.6273836229484-12.261863467329931-1.296071721351836-24.621905106071608-3.441846806146714-36.419952716617445-6.943547470029444-20.451103247107312-6.07002398539953-40.513732101212554-13.451083156582172-60.714123349393049-20.355704191690165-23.888966607833936-8.165444691070661-47.788171285455974-16.304105137927763-71.602735291803583-24.68171675550002-7.187594421962785-2.528504078451078-14.182207934590224-5.247033441517488-21.929867246270078-2.788632658257484-1.31248701595996-2.084742720311624-2.34907593423759-4.280515060972903-2.721764028366124-6.743415597262356Z"/>
      <path class="cls-3" d="M16.831583601590864,300.548559430274508c7.747659311679854-2.458400783260004,14.742272824307292.260128579806405,21.929867246270078,2.788632658257484,23.814564006347609,8.377611617572256,47.713768683969647,16.516272064429359,71.602735291803583,24.68171675550002,20.200391248180495,6.904621035107994,40.263020102285736,14.285680206290635,60.714123349393049,20.355704191690165,11.798047610545837,3.50170066388273,24.158089249287514,5.647475748677607,36.419952716617445,6.943547470029444,22.497483271302372,2.378012338293047,44.512981465029043,8.362898139415847,67.302155839044644,8.6273836229484,3.404225265931927.039497832132838,8.035838622334268-.662570777201836,10.38018671430109,3.629300803318984-4.42604722154374,2.340942944301787-8.889452220877502,4.62267485272605-12.667934822202369,7.9862759534426-14.787689170131671-1.704299315499156-29.100939927228865-5.976100569021582-44.010627546425894-7.389808690961218-15.16502239723377-1.437921078708314-30.132329336702242-4.883017706486498-45.217628912778309-7.249744949884189-19.055953876852982-2.989657339163386-35.744579889376837-12.682875320198946-53.731259027769738-18.697116652982004-9.01450867856056-3.014155994538669-17.789240868543857-6.737808762140048-26.703988722109898-10.056019496996669-22.179226836415182-8.255546888607569-44.663114487532766-15.739171858967893-66.305182438840347-25.355715476900514-5.647529421101353-2.50939798424406-10.447154420565312-1.427385942652108-15.504264639798748.835097022265472-1.695540596901992-2.193593888798205-3.348892745964804-4.411829282273175-4.208135047504584-7.099253209727976Z"/>
      <path class="cls-3" d="M143.200573008927677,419.905936989601287c7.224232405328621-.546755705219766,12.464979618676807,4.601497443636617,18.805697896755191,6.657920289731919,9.539913901890031,3.094044466948617,18.742123507070573,7.226139102651359,28.087987984918072,10.917150804638368.594344540415477.47540247863617,1.121305592690078,1.216290385920729,1.793012386206101,1.386031069585442,10.197206923792692,2.576644293383652,20.048984055419169,6.323152949384166,30.048868949455937,9.479943972442925,11.901340346079451,3.75697236740416,24.677646701751655,3.592802806535474,36.098843928662063,8.926367213025515-.988827652104192.585039318286363-1.977619538024555,1.170114348897187-2.969326367831854,1.756903571134899.674621737402049,1.677336509656016,3.117916973707906,1.70194230200832,3.411217554641553,4.031314452808147-36.899702407775294-7.074397431095349-71.627986216763929-19.848696304881742-104.802980478850259-37.007861655096349-3.587401770443648-1.855576726818981-7.620593241607821-3.020834199429373-10.473321853956804-6.147769718270865Z"/>
      <path class="cls-7" d="M125.429233114808085,409.606502281188114c6.031698459863037-.113743757092379,9.985444297785762,3.205252648924215,13.10203792273569,7.907137439873622-4.822408057821121-1.884003738010506-9.200161991221648-4.502502877019651-13.10203792273569-7.907137439873622Z"/>
      <path class="cls-1" d="M232.181309601008252,144.879665925009249c-6.544907414905538.405468816991743-12.397900143091647-1.642543776421917-18.509035294650857-1.239467685245472-5.807820039480248.383059332666562-11.317850842103326.535390257592553-17.030532835698068,2.883118543761157-7.694182162438665,3.162058591087771-15.967168458923879.754244317065968-23.910175954154511-.949251471105526-15.424327221544445-3.308014865890982-22.270332245205282-15.681433956524415-29.387283985633985-27.747557413290451-.681918038666481-1.156132973414969-.718739323719092-2.771713943994655-1.556320730882362-3.743071344658347-5.004055558025357-5.803252913026881-2.5963119072876-10.411991030680838.004917850115817-17.007637952616278,9.647900948897586-24.463068041900442,30.80556513452666-31.514172108612001,52.847566069606728-37.42175411689368,15.899713438419894-4.261359862321115,32.28289625099751-6.368387073819576,48.651718941234321-8.204192564367986,1.697176899758233-.190342231506293,3.577798550398256-.127216231934653,5.176493266191756.406263416238289,10.894933615196351,3.63558170858596,22.208438866106917,6.455154632951235,32.479449307826144,11.412471832886695,13.443202597619347,6.488371559817097,21.10109996774554,18.608045648848019,25.665759030200206,32.552932059840714.953884091642067,2.914134698561611-.638319061998118,5.848375436446076-2.446979153119173,8.084333071510628-10.058130122504735,12.434192540754339-21.000757942283599,23.846164401083115-35.91166161169167,30.702073824045328-4.444323740883192,2.043450343815493-8.799375089837667,4.616335914928641-13.660643105124109,4.886383593176106-8.020942007253325.445573758662249-14.450431950703205,7.174856203061609-22.413271794220236,5.385356206718825ZM223.253641213955234,70.480352061306803c-13.412318498890272,1.09039997407217-25.862401502487955,1.462683112484228-38.090090382281232,3.305876590394291-9.228140087609972,1.391030795170991-17.925241778122654,5.209231944850217-24.588231245092175,12.28905764944011-3.773832997578211,4.009931697843967-3.062908584771321,7.735593283762682,2.187853159721271,9.310515771626342,8.700410062408082,2.609651410336483,16.183392916217599,7.426235263091257,23.714821064445459,12.141744306263718,3.874872463603424,2.426107912820044,7.502368124813074,5.107014340847854,9.876527330029603,9.569769399453435,2.0161218336616,3.789756282323651,5.256251853532376,8.508720492999601,9.626450180844586,8.762867258264123,16.682080801097982.970169965837158,34.311911793509353,7.17817744934473,48.971969340805117-6.82882162398073.80951389531856-.773448620166164,2.046719802930056-1.111340789006135,3.102305034975871-1.615563114416545,7.81779008972444-3.73430396871845,14.611576486695412-8.699531448779453,19.940397924851823-15.66092615353682,2.20158737386555-2.876083215614926,2.371190612056125-4.983619327754241-.631559253475643-7.239959772664406-7.906525988913017-5.941191770729347-15.740571808657478-11.978467553535666-23.632058117759698-17.939729651263406-3.422680616186881-2.585509878217636-6.993451111691684-4.676162988421311-11.41248816143252-5.470324757447088-6.714904081105487-1.206750730938438-13.553058427671203,1.620786042039072-19.065896875632461-.624505902133023Z"/>
      <path class="cls-2" d="M223.253641213955234,70.480352061306803c5.512838447961258,2.245291944172095,12.350992794526974-.582244828805415,19.065896875632461.624505902133023,4.419037049740837.794161769025777,7.98980754524564,2.884814879229452,11.41248816143252,5.470324757447088,7.89148630910222,5.96126209772774,15.72553212884668,11.998537880534059,23.632058117759698,17.939729651263406,3.002749865531769,2.256340444910165,2.833146627341193,4.36387655704948.631559253475643,7.239959772664406-5.32882143815641,6.961394704757367-12.122607835127383,11.92662218481837-19.940397924851823,15.66092615353682-1.055585232045814.50422232541041-2.292791139657311.842114494250382-3.102305034975871,1.615563114416545-14.660057547295764,14.00699907332546-32.289888539707135,7.798991589817888-48.971969340805117,6.82882162398073-4.37019832731221-.254146765264522-7.610328347182985-4.973110975940472-9.626450180844586-8.762867258264123-2.374159205216529-4.46275505860558-6.001654866426179-7.143661486633391-9.876527330029603-9.569769399453435-7.53142814822786-4.71550904317246-15.014411002037377-9.532092895927235-23.714821064445459-12.141744306263718-5.250761744492593-1.57492248786366-5.961686157299482-5.300584073782375-2.187853159721271-9.310515771626342,6.66298946696952-7.079825704589894,15.360091157482202-10.898026854269119,24.588231245092175-12.28905764944011,12.227688879793277-1.843193477910063,24.67777188339096-2.215476616322121,38.090090382281232-3.305876590394291Z"/>
    </g>
  </g>
</svg>